<?xml version="1.0" encoding="utf-8"?>
<!-- Generator: Adobe Illustrator 15.0.0, SVG Export Plug-In . SVG Version: 6.00 Build 0)  -->
<!DOCTYPE svg PUBLIC "-//W3C//DTD SVG 1.1//EN" "http://www.w3.org/Graphics/SVG/1.1/DTD/svg11.dtd">
<svg version="1.1" id="Layer_1" xmlns="http://www.w3.org/2000/svg" xmlns:xlink="http://www.w3.org/1999/xlink" x="0px" y="0px"
	 width="1600px" height="700px" viewBox="0 0 1600 700" enable-background="new 0 0 1600 700" xml:space="preserve">
<g>
	<rect x="39.569" y="228.401" fill="#F0DB4F" width="1520.861" height="209.394"/>
	<text transform="matrix(1 0 0 1 1015.6465 369.2998)" font-family="'Raleway-Light'" font-size="101.9229" letter-spacing="5">JAR•GON</text>
	<text transform="matrix(1 0 0 1 113.1167 369.2998)" font-family="'Raleway-Light'" font-size="101.9229">SIMPLIFIED</text>
	<rect x="747" y="399" fill="#FFFFFF" width="209" height="49"/>
	<path d="M747.018,433.594c0.009,0.648,0.02,1.135,0.025,1.459c0.005,0.195-0.029,0.377-0.04,0.566
		c0.437,10.814,9.348,19.473,20.26,19.473h180.232v-19.854c0-3.961,3.217-7.184,7.183-7.184c3.963,0,7.183,3.223,7.183,7.184v27.037
		c0,3.965-3.22,7.18-7.183,7.18H766.179c-0.373,0-0.733-0.051-1.096-0.105c-18.1-1.137-32.491-16.176-32.491-34.561
		c0-0.42,0.051-0.828,0.065-1.246c-0.222-21.324,0-183.557,0.026-201.208c-0.028-0.251-0.076-0.488-0.076-0.747
		c0-19.115,15.549-34.663,34.668-34.663h11.477h174.166h1.753c3.966,0,7.182,3.214,7.182,7.18v203.005
		c0,3.967-3.216,7.182-7.182,7.182c-0.042,0-0.077-0.012-0.118-0.012c-0.528,0.125-1.082,0.211-1.646,0.211H767.263
		C756.473,414.488,747.647,422.957,747.018,433.594z"/>
	<path fill="#F0DB4F" d="M879.946,495.898v-69.363h46.642v76.539l-23.322-23.322l-23.319,23.322V495.898L879.946,495.898z"/>
	<path fill="#FFFFFF" d="M909.29,316.871c-1.293-8.062-6.552-14.834-22.123-21.149c-5.412-2.489-11.442-4.271-13.238-8.369
		c-0.639-2.382-0.724-3.728-0.319-5.173c1.159-4.686,6.752-6.15,11.188-4.805c2.855,0.958,5.562,3.159,7.192,6.671
		c7.626-4.941,7.607-4.907,12.935-8.3c-1.951-3.024-2.991-4.419-4.269-5.713c-4.586-5.123-10.835-7.762-20.832-7.559
		c-1.729,0.217-3.478,0.454-5.205,0.671c-4.992,1.259-9.747,3.881-12.532,7.392c-8.367,9.492-5.983,26.108,4.198,32.945
		c10.029,7.523,24.762,9.236,26.644,16.277c1.831,8.618-6.334,11.408-14.446,10.416c-5.982-1.243-9.31-4.283-12.904-9.81
		c-6.617,3.829-6.617,3.829-13.421,7.744c1.612,3.528,3.309,5.123,6.015,8.181c12.8,12.985,44.836,12.346,50.583-7.307
		C908.987,328.309,910.532,323.81,909.29,316.871z M843.101,263.515h-16.529c0,14.28-0.068,28.458-0.068,42.736
		c0,9.089,0.471,17.423-1.007,19.975c-2.42,5.026-8.686,4.403-11.542,3.427c-2.905-1.429-4.385-3.46-6.1-6.332
		c-0.47-0.822-0.822-1.462-0.94-1.513c-4.483,2.739-8.952,5.492-13.438,8.232c2.233,4.588,5.528,8.57,9.744,11.157
		c6.3,3.778,14.768,4.938,23.618,2.905c5.764-1.68,10.737-5.157,13.341-10.45c3.764-6.938,2.956-15.339,2.922-24.627
		C843.186,293.873,843.101,278.719,843.101,263.515z"/>
</g>
</svg>
